<svg width="100" height="100" viewBox="0 0 100 100" fill="none" xmlns="http://www.w3.org/2000/svg">
<g clip-path="url(#clip0_1_2)">
<path d="M44.4537 53.9C45.0777 53.432 45.4937 52.704 45.6497 51.924L46.1177 52.028L43.9857 62.792H16.1657C16.1657 52.132 38.0057 49.688 38.0057 37.364C38.0057 31.488 34.9897 26.756 30.0497 26.756C27.6057 26.756 25.7337 28.212 24.4337 30.136C23.3937 31.644 22.8737 33.412 22.8737 35.232C22.8737 37.78 23.9137 40.172 25.6817 41.94L25.3697 42.356L15.2297 32.32C15.2817 32.164 15.3857 32.008 15.4897 31.852C18.1937 28.212 23.7057 26.236 30.0497 26.236C39.0977 26.236 46.4297 29.98 46.4297 37.364C46.4297 39.704 45.9097 45.164 29.9457 50.624C27.1377 51.56 24.4857 52.912 22.0937 54.68H41.5417C43.1017 54.68 43.8817 54.42 44.4537 53.9ZM71.2706 39.444L81.9826 59.464C82.9706 61.336 84.8946 62.48 87.0266 62.48V63H70.8546V62.48C71.4266 62.48 71.9466 62.272 72.3626 61.908C72.7266 61.492 72.9346 60.972 72.9346 60.4C72.9346 60.036 72.8306 59.724 72.6746 59.412L63.6266 42.564L61.3386 44.748V58.476C61.3386 60.712 63.1066 62.48 65.3426 62.48V63H49.2226V62.48C51.4066 62.48 53.2266 60.712 53.2266 58.476V31.124C53.2266 30.084 52.7586 29.044 52.0306 28.316C51.2506 27.588 50.2626 27.172 49.2226 27.172V26.652H65.3426V27.172C63.1586 27.172 61.3386 28.94 61.3386 31.124V44.072L69.5026 36.272L75.8986 30.136C76.2106 29.824 76.4186 29.408 76.3666 28.94C76.3666 28.472 76.2106 28.004 75.8986 27.692C75.5866 27.38 75.1186 27.172 74.6506 27.172V26.652H83.1786V27.172C80.9426 27.172 78.8626 28.004 77.2506 29.512L71.9986 34.608C71.2186 35.336 70.7506 36.428 70.7506 37.52C70.7506 38.196 70.9066 38.872 71.2706 39.444Z" fill="white"/>
</g>
<defs>
<clipPath id="clip0_1_2">
<rect width="100" height="100" fill="white"/>
</clipPath>
</defs>
</svg>
