<svg width="32" height="32" viewBox="0 0 32 32" fill="none" xmlns="http://www.w3.org/2000/svg">
<path d="M13.8668 21.5C14.1068 21.32 14.2668 21.04 14.3268 20.74L14.5068 20.78L13.6868 24.92H2.9868C2.9868 20.82 11.3868 19.88 11.3868 15.14C11.3868 12.88 10.2268 11.06 8.3268 11.06C7.3868 11.06 6.6668 11.62 6.1668 12.36C5.7668 12.94 5.5668 13.62 5.5668 14.32C5.5668 15.3 5.9668 16.22 6.6468 16.9L6.5268 17.06L2.6268 13.2C2.6468 13.14 2.6868 13.08 2.7268 13.02C3.7668 11.62 5.8868 10.86 8.3268 10.86C11.8068 10.86 14.6268 12.3 14.6268 15.14C14.6268 16.04 14.4268 18.14 8.2868 20.24C7.2068 20.6 6.1868 21.12 5.2668 21.8H12.7468C13.3468 21.8 13.6468 21.7 13.8668 21.5ZM24.181 15.94L28.301 23.64C28.681 24.36 29.421 24.8 30.241 24.8V25H24.021V24.8C24.241 24.8 24.441 24.72 24.601 24.58C24.741 24.42 24.821 24.22 24.821 24C24.821 23.86 24.781 23.74 24.721 23.62L21.241 17.14L20.361 17.98V23.26C20.361 24.12 21.041 24.8 21.901 24.8V25H15.701V24.8C16.541 24.8 17.241 24.12 17.241 23.26V12.74C17.241 12.34 17.061 11.94 16.781 11.66C16.481 11.38 16.101 11.22 15.701 11.22V11.02H21.901V11.22C21.061 11.22 20.361 11.9 20.361 12.74V17.72L23.501 14.72L25.961 12.36C26.081 12.24 26.161 12.08 26.141 11.9C26.141 11.72 26.081 11.54 25.961 11.42C25.841 11.3 25.661 11.22 25.481 11.22V11.02H28.761V11.22C27.901 11.22 27.101 11.54 26.481 12.12L24.461 14.08C24.161 14.36 23.981 14.78 23.981 15.2C23.981 15.46 24.041 15.72 24.181 15.94Z" fill="white"/>
</svg>
