<svg width="256" height="256" viewBox="0 0 256 256" fill="none" xmlns="http://www.w3.org/2000/svg">
<g clip-path="url(#clip0_5_4)">
<path d="M111.148 150.35C113.044 148.928 114.308 146.716 114.782 144.346L116.204 144.662L109.726 177.368H25.1957C25.1957 144.978 91.5557 137.552 91.5557 100.106C91.5557 82.252 82.3917 67.874 67.3817 67.874C59.9557 67.874 54.2677 72.298 50.3177 78.144C47.1577 82.726 45.5777 88.098 45.5777 93.628C45.5777 101.37 48.7377 108.638 54.1097 114.01L53.1617 115.274L22.3517 84.78C22.5097 84.306 22.8257 83.832 23.1417 83.358C31.3577 72.298 48.1057 66.294 67.3817 66.294C94.8737 66.294 117.152 77.67 117.152 100.106C117.152 107.216 115.572 123.806 67.0657 140.396C58.5337 143.24 50.4757 147.348 43.2077 152.72H102.3C107.04 152.72 109.41 151.93 111.148 150.35ZM192.63 106.426L225.178 167.256C228.18 172.944 234.026 176.42 240.504 176.42V178H191.366V176.42C193.104 176.42 194.684 175.788 195.948 174.682C197.054 173.418 197.686 171.838 197.686 170.1C197.686 168.994 197.37 168.046 196.896 167.098L169.404 115.906L162.452 122.542V164.254C162.452 171.048 167.824 176.42 174.618 176.42V178H125.638V176.42C132.274 176.42 137.804 171.048 137.804 164.254V81.146C137.804 77.986 136.382 74.826 134.17 72.614C131.8 70.402 128.798 69.138 125.638 69.138V67.558H174.618V69.138C167.982 69.138 162.452 74.51 162.452 81.146V120.488L187.258 96.788L206.692 78.144C207.64 77.196 208.272 75.932 208.114 74.51C208.114 73.088 207.64 71.666 206.692 70.718C205.744 69.77 204.322 69.138 202.9 69.138V67.558H228.812V69.138C222.018 69.138 215.698 71.666 210.8 76.248L194.842 91.732C192.472 93.944 191.05 97.262 191.05 100.58C191.05 102.634 191.524 104.688 192.63 106.426Z" fill="white"/>
</g>
<defs>
<clipPath id="clip0_5_4">
<rect width="256" height="256" fill="white"/>
</clipPath>
</defs>
</svg>
